<?xml version="1.0" standalone="no"?>
<!DOCTYPE svg PUBLIC "-//W3C//DTD SVG 20010904//EN"
 "http://www.w3.org/TR/2001/REC-SVG-20010904/DTD/svg10.dtd">
<svg version="1.0" xmlns="http://www.w3.org/2000/svg"
 width="400.000000pt" height="400.000000pt" viewBox="0 0 400.000000 400.000000"
 preserveAspectRatio="xMidYMid meet">
<metadata>
Created by potrace 1.11, written by Peter Selinger 2001-2013
</metadata>
<g transform="translate(0.000000,400.000000) scale(0.100000,-0.100000)"
fill="#000000" stroke="none">
<path d="M1760 3985 c-349 -43 -685 -180 -975 -398 -103 -78 -294 -269 -372
-372 -222 -294 -356 -626 -398 -985 -61 -512 80 -1023 398 -1445 78 -103 269
-294 372 -372 422 -318 933 -459 1445 -398 359 42 691 176 985 398 103 78 294
269 372 372 318 422 459 933 398 1445 -42 359 -176 691 -398 985 -78 103 -269
294 -372 372 -423 318 -942 461 -1455 398z m655 -344 c209 -53 368 -143 517
-293 299 -300 389 -747 234 -1160 -43 -115 -96 -200 -217 -350 l-22 -27 27
-41 c15 -23 25 -48 22 -55 -4 -12 -280 -107 -350 -120 l-35 -7 21 73 c29 103
98 302 108 313 5 5 21 -1 38 -13 17 -11 35 -21 41 -21 64 0 200 210 258 397
24 80 27 103 27 248 0 190 -10 238 -88 400 -100 209 -223 333 -431 437 -105
53 -194 77 -333 89 -140 13 -208 5 -340 -38 -404 -132 -656 -478 -655 -898 1
-243 91 -454 272 -636 98 -98 188 -156 364 -233 161 -70 240 -120 313 -197 68
-73 100 -131 124 -224 21 -81 40 -302 40 -466 0 -53 3 -130 6 -171 l7 -75 59
-6 c33 -3 62 -8 66 -11 8 -8 -108 -126 -317 -322 l-163 -154 -47 39 c-90 76
-446 429 -439 436 4 4 36 10 72 12 l66 6 0 286 0 286 -40 63 c-34 53 -49 67
-94 88 -78 35 -171 52 -331 60 -158 7 -197 19 -220 64 -16 30 -16 37 -1 96 22
86 20 116 -9 174 -31 62 -31 74 0 94 34 22 31 40 -9 65 -56 35 -61 45 -42 91
31 77 24 90 -92 183 -44 35 -72 65 -72 77 0 10 42 72 94 137 163 206 177 234
191 397 6 68 14 93 62 188 149 297 356 525 578 635 73 37 196 78 290 97 100
21 343 14 450 -13z m-485 -295 c6 -8 33 -16 58 -18 46 -3 47 -4 50 -38 2 -21
13 -44 28 -58 30 -29 30 -38 0 -58 -18 -11 -26 -26 -28 -52 -3 -36 -4 -37 -50
-40 -25 -2 -52 -10 -58 -18 -20 -23 -43 -16 -65 19 -14 21 -30 33 -48 35 -32
4 -45 26 -27 47 7 8 10 29 7 47 -3 18 -7 42 -9 53 -2 15 4 21 27 25 19 3 37
17 50 37 22 35 45 42 65 19z m501 -131 c19 -31 26 -35 63 -35 36 0 44 4 59 30
20 33 29 35 76 19 28 -10 31 -15 31 -55 0 -41 3 -46 35 -61 30 -14 40 -15 75
-3 38 12 42 12 65 -10 29 -28 31 -40 9 -82 -15 -29 -15 -34 0 -65 13 -28 21
-33 50 -33 65 0 93 -86 37 -114 -53 -28 -57 -86 -9 -126 30 -26 32 -29 23 -66
-10 -38 -12 -39 -56 -42 -41 -3 -47 -6 -62 -37 -15 -31 -15 -38 -1 -71 14 -33
14 -38 -3 -56 -33 -37 -51 -41 -86 -19 l-31 20 -38 -21 c-32 -18 -38 -27 -38
-54 0 -36 -12 -49 -57 -59 -29 -6 -34 -3 -55 29 -20 31 -28 36 -63 36 -35 0
-43 -5 -58 -30 -20 -34 -33 -36 -82 -16 -32 14 -35 19 -35 56 0 36 -4 42 -33
56 -30 14 -37 14 -69 1 -35 -15 -37 -14 -62 12 -29 30 -32 57 -11 85 12 16 12
23 -5 56 -16 31 -26 38 -58 44 -30 4 -41 11 -46 28 -12 45 -6 67 24 88 43 31
43 85 -1 120 l-31 26 17 42 c15 38 21 42 51 42 27 0 38 7 58 36 24 35 24 38 9
70 -16 32 -15 35 3 55 33 37 52 42 84 23 27 -17 31 -17 69 1 38 16 41 21 41
56 0 35 3 39 33 48 51 15 56 13 78 -24z m-741 -225 c4 0 20 14 34 31 21 25 32
30 51 25 20 -5 26 -15 31 -46 8 -49 14 -54 58 -42 30 9 37 7 56 -13 l22 -24
-21 -27 c-30 -38 -26 -54 19 -71 55 -22 55 -53 0 -88 -34 -22 -39 -28 -30 -45
5 -10 15 -22 20 -25 14 -9 12 -52 -2 -62 -7 -4 -33 -8 -58 -8 -44 0 -45 -1
-48 -35 -6 -63 -45 -80 -80 -35 -23 29 -57 33 -71 8 -24 -42 -27 -44 -53 -34
-20 7 -27 19 -32 52 l-7 42 -48 -6 c-44 -5 -50 -3 -61 18 -11 20 -10 28 4 49
24 38 20 51 -24 69 -32 12 -40 20 -40 41 0 20 8 30 35 43 44 21 49 35 23 68
-17 22 -19 30 -9 51 10 22 16 25 59 22 l47 -3 5 40 c4 29 11 43 30 52 23 11
28 10 53 -17 15 -17 32 -30 37 -30z"/>
<path d="M1894 3268 c-52 -25 -51 -103 2 -127 35 -16 48 -14 78 10 18 14 26
30 26 52 0 38 -7 50 -37 66 -26 13 -41 13 -69 -1z"/>
<path d="M2362 3020 c-72 -33 -110 -69 -143 -136 -72 -146 -20 -306 126 -382
41 -21 63 -26 125 -26 88 0 130 16 190 70 61 55 83 104 88 199 4 69 1 87 -19
129 -48 104 -146 166 -259 166 -43 0 -80 -7 -108 -20z"/>
<path d="M1635 2906 c-52 -23 -78 -60 -83 -119 -7 -88 37 -145 124 -162 43 -8
116 23 139 59 84 127 -43 283 -180 222z"/>
</g>
</svg>
